<mxfile host="app.diagrams.net" modified="2022-09-30T17:06:39.072Z" agent="5.0 (Macintosh; Intel Mac OS X 10_15_7) AppleWebKit/537.36 (KHTML, like Gecko) Chrome/105.0.0.0 Safari/537.36" etag="snZ0s0xiDclWjao-ihsp" version="20.3.6" type="github">
  <diagram id="_EmCTCWS1lqvhxd-YoTF" name="Page-1">
    <mxGraphModel dx="841" dy="529" grid="1" gridSize="10" guides="1" tooltips="1" connect="1" arrows="1" fold="1" page="1" pageScale="1" pageWidth="850" pageHeight="1100" math="0" shadow="0">
      <root>
        <mxCell id="0" />
        <mxCell id="1" parent="0" />
        <mxCell id="38UYrBsicyJ7MNT3eMnk-3" value="" style="edgeStyle=orthogonalEdgeStyle;rounded=0;orthogonalLoop=1;jettySize=auto;html=1;" parent="1" source="38UYrBsicyJ7MNT3eMnk-1" target="38UYrBsicyJ7MNT3eMnk-2" edge="1">
          <mxGeometry relative="1" as="geometry" />
        </mxCell>
        <mxCell id="38UYrBsicyJ7MNT3eMnk-1" value="Begin program" style="ellipse;whiteSpace=wrap;html=1;" parent="1" vertex="1">
          <mxGeometry x="10" y="10" width="120" height="80" as="geometry" />
        </mxCell>
        <mxCell id="38UYrBsicyJ7MNT3eMnk-5" value="" style="edgeStyle=orthogonalEdgeStyle;rounded=0;orthogonalLoop=1;jettySize=auto;html=1;" parent="1" source="38UYrBsicyJ7MNT3eMnk-2" target="38UYrBsicyJ7MNT3eMnk-4" edge="1">
          <mxGeometry relative="1" as="geometry" />
        </mxCell>
        <mxCell id="HxaYz7vMxQxWTl2UJwOW-2" value="" style="edgeStyle=orthogonalEdgeStyle;rounded=0;orthogonalLoop=1;jettySize=auto;html=1;" edge="1" parent="1" source="38UYrBsicyJ7MNT3eMnk-2" target="HxaYz7vMxQxWTl2UJwOW-1">
          <mxGeometry relative="1" as="geometry" />
        </mxCell>
        <mxCell id="38UYrBsicyJ7MNT3eMnk-2" value="Get 2 points from the user (point 1) (point 2)&lt;br&gt;(px1, py1)&amp;nbsp; (px2, py2)" style="whiteSpace=wrap;html=1;" parent="1" vertex="1">
          <mxGeometry x="210" y="20" width="150" height="60" as="geometry" />
        </mxCell>
        <mxCell id="38UYrBsicyJ7MNT3eMnk-7" value="" style="edgeStyle=orthogonalEdgeStyle;rounded=0;orthogonalLoop=1;jettySize=auto;html=1;" parent="1" source="38UYrBsicyJ7MNT3eMnk-4" target="38UYrBsicyJ7MNT3eMnk-6" edge="1">
          <mxGeometry relative="1" as="geometry">
            <Array as="points">
              <mxPoint x="660" y="130" />
            </Array>
          </mxGeometry>
        </mxCell>
        <mxCell id="38UYrBsicyJ7MNT3eMnk-4" value="draw the lines on the screen" style="whiteSpace=wrap;html=1;" parent="1" vertex="1">
          <mxGeometry x="610" y="20" width="120" height="60" as="geometry" />
        </mxCell>
        <mxCell id="38UYrBsicyJ7MNT3eMnk-9" value="" style="edgeStyle=orthogonalEdgeStyle;rounded=0;orthogonalLoop=1;jettySize=auto;html=1;exitX=0.5;exitY=1;exitDx=0;exitDy=0;" parent="1" source="HxaYz7vMxQxWTl2UJwOW-3" target="38UYrBsicyJ7MNT3eMnk-8" edge="1">
          <mxGeometry relative="1" as="geometry">
            <Array as="points">
              <mxPoint x="390" y="220" />
            </Array>
          </mxGeometry>
        </mxCell>
        <mxCell id="38UYrBsicyJ7MNT3eMnk-11" style="edgeStyle=orthogonalEdgeStyle;rounded=0;orthogonalLoop=1;jettySize=auto;html=1;entryX=0;entryY=0;entryDx=0;entryDy=0;" parent="1" source="38UYrBsicyJ7MNT3eMnk-6" target="38UYrBsicyJ7MNT3eMnk-10" edge="1">
          <mxGeometry relative="1" as="geometry" />
        </mxCell>
        <mxCell id="38UYrBsicyJ7MNT3eMnk-6" value="calculate the acute angle" style="whiteSpace=wrap;html=1;" parent="1" vertex="1">
          <mxGeometry x="310" y="100" width="120" height="60" as="geometry" />
        </mxCell>
        <mxCell id="38UYrBsicyJ7MNT3eMnk-8" value="&amp;nbsp;slope of ine 1:&lt;br&gt;y2 - y1 / x2 - x1" style="whiteSpace=wrap;html=1;" parent="1" vertex="1">
          <mxGeometry x="500" y="190" width="120" height="60" as="geometry" />
        </mxCell>
        <mxCell id="38UYrBsicyJ7MNT3eMnk-13" value="" style="edgeStyle=orthogonalEdgeStyle;rounded=0;orthogonalLoop=1;jettySize=auto;html=1;exitX=1;exitY=0.5;exitDx=0;exitDy=0;" parent="1" source="38UYrBsicyJ7MNT3eMnk-8" target="38UYrBsicyJ7MNT3eMnk-12" edge="1">
          <mxGeometry relative="1" as="geometry" />
        </mxCell>
        <mxCell id="HxaYz7vMxQxWTl2UJwOW-4" value="" style="edgeStyle=orthogonalEdgeStyle;rounded=0;orthogonalLoop=1;jettySize=auto;html=1;" edge="1" parent="1" source="38UYrBsicyJ7MNT3eMnk-10" target="HxaYz7vMxQxWTl2UJwOW-3">
          <mxGeometry relative="1" as="geometry" />
        </mxCell>
        <mxCell id="38UYrBsicyJ7MNT3eMnk-10" value="Determine the slope or each line" style="rounded=1;whiteSpace=wrap;html=1;" parent="1" vertex="1">
          <mxGeometry x="130" y="190" width="120" height="60" as="geometry" />
        </mxCell>
        <mxCell id="38UYrBsicyJ7MNT3eMnk-12" value="slope of line 2:&lt;br&gt;y2 - y1 / x2 - x1" style="whiteSpace=wrap;html=1;" parent="1" vertex="1">
          <mxGeometry x="670" y="190" width="120" height="60" as="geometry" />
        </mxCell>
        <mxCell id="HxaYz7vMxQxWTl2UJwOW-1" value="Convert input to integers" style="whiteSpace=wrap;html=1;" vertex="1" parent="1">
          <mxGeometry x="410" y="20" width="120" height="60" as="geometry" />
        </mxCell>
        <mxCell id="HxaYz7vMxQxWTl2UJwOW-3" value="Starting point of &quot;goto&quot; is always 0,0" style="whiteSpace=wrap;html=1;rounded=1;" vertex="1" parent="1">
          <mxGeometry x="330" y="190" width="120" height="60" as="geometry" />
        </mxCell>
      </root>
    </mxGraphModel>
  </diagram>
</mxfile>
